<?xml version="1.0" encoding="UTF-8"?>
<svg xmlns="http://www.w3.org/2000/svg" width="200px" height="179px" viewBox="0 0 8245 7375" version="1.1">
  <defs>
    <style type="text/css">
      <![CDATA[
        .str0 {stroke:#00A0E3;stroke-width:15;stroke-miterlimit:22.9256;}
        .fil0 {fill:#216BFF;fill-rule:nonzero;}
      ]]>
    </style>
  </defs>
 <g>
  <path class="fil0 str0" d="M376 7349c-37,-77 -72,-156 -108,-239 -35,-82 -69,-164 -101,-245 -31,-81 -61,-158 -87,-232 -27,-74 -50,-140 -70,-198l227 0c17,53 36,110 57,171 21,61 43,122 64,182 22,61 43,119 63,175 20,55 39,103 57,143 17,-40 36,-87 56,-143 21,-55 42,-113 63,-174 22,-61 43,-121 64,-183 21,-60 40,-118 57,-171l220 0c-21,58 -44,124 -71,198 -27,74 -56,151 -88,232 -31,81 -65,163 -100,245 -35,83 -70,163 -107,239l-196 0zm819 -458c0,45 5,86 16,122 11,36 27,67 48,93 20,26 46,46 75,60 30,14 65,21 103,21 38,0 72,-7 102,-21 31,-14 56,-34 77,-60 21,-26 36,-57 47,-93 11,-36 17,-77 17,-122 0,-44 -6,-85 -17,-122 -11,-36 -26,-67 -47,-93 -21,-26 -46,-46 -77,-60 -30,-14 -64,-21 -102,-21 -38,0 -73,7 -103,22 -29,14 -55,34 -75,60 -21,26 -37,57 -48,94 -11,36 -16,77 -16,120zm697 0c0,79 -11,147 -35,207 -23,59 -55,109 -95,149 -41,40 -89,70 -145,90 -56,20 -116,31 -180,31 -62,0 -121,-11 -176,-31 -56,-20 -104,-50 -145,-90 -42,-40 -74,-90 -98,-149 -24,-60 -36,-128 -36,-207 0,-78 13,-147 37,-206 25,-59 58,-109 100,-150 42,-40 90,-70 145,-91 55,-20 113,-30 173,-30 63,0 122,10 177,30 55,21 104,51 145,91 41,41 74,91 98,150 23,59 35,128 35,206zm782 281l0 177 -610 0 0 -914 205 0 0 737 405 0zm707 -737l0 176 -276 0 0 738 -205 0 0 -738 -276 0 0 -176 757 0zm637 914c-10,-32 -21,-64 -33,-98 -12,-33 -23,-67 -35,-100l-357 0c-11,34 -23,67 -35,100 -11,34 -22,66 -32,98l-214 0c35,-98 67,-189 98,-273 31,-83 61,-162 91,-236 29,-74 58,-144 87,-210 29,-67 59,-131 89,-195l195 0c31,64 60,128 89,195 29,66 59,136 88,210 30,74 60,153 91,236 31,84 64,175 98,273l-220 0zm-247 -707c-5,13 -12,32 -21,54 -8,23 -18,50 -30,80 -11,30 -24,63 -37,99 -15,35 -29,73 -43,113l261 0c-14,-40 -27,-78 -40,-114 -13,-36 -26,-69 -38,-99 -11,-30 -22,-56 -31,-79 -9,-23 -16,-41 -21,-54zm997 -49c-96,0 -165,27 -207,80 -43,53 -64,126 -64,218 0,45 5,86 15,122 11,37 27,68 48,95 21,26 47,47 79,61 32,15 69,22 111,22 23,0 42,-1 58,-2 17,0 31,-2 43,-5l0 -318 206 0 0 453c-25,9 -64,20 -119,31 -54,11 -121,16 -201,16 -69,0 -131,-10 -187,-31 -56,-22 -104,-52 -143,-93 -40,-40 -70,-90 -92,-149 -21,-59 -32,-126 -32,-202 0,-76 12,-144 36,-203 23,-59 56,-108 97,-149 41,-41 90,-72 146,-93 56,-21 115,-32 179,-32 43,0 82,3 116,9 35,5 65,12 90,19 25,8 46,16 62,24 16,7 28,14 35,18l-60 165c-28,-15 -60,-28 -96,-39 -37,-11 -77,-17 -120,-17zm480 756l0 -914 617 0 0 173 -411 0 0 179 365 0 0 169 -365 0 0 220 442 0 0 173 -648 0zm1412 0c-58,-105 -122,-208 -191,-310 -68,-102 -141,-198 -219,-289l0 599 -203 0 0 -914 168 0c29,29 61,65 96,107 35,42 71,87 108,135 36,48 72,98 108,149 36,52 70,101 102,149l0 -540 204 0 0 914 -173 0zm384 -914l206 0 0 914 -206 0 0 -914zm942 914c-26,-51 -54,-102 -84,-155 -31,-52 -66,-96 -106,-132 -12,14 -27,33 -46,57 -19,24 -38,50 -57,77 -19,27 -36,55 -53,84 -16,29 -29,52 -37,69l-234 0c38,-71 84,-145 136,-221 52,-76 111,-157 175,-242l-298 -451 249 0 174 265 178 -265 235 0 -297 441c78,98 142,187 192,268 51,81 90,150 119,205l-246 0zm-5107 -4716c46,-92 158,-130 251,-84 92,46 130,159 83,251 -46,92 -158,130 -250,84 -93,-46 -130,-158 -84,-251zm-169 618c0,-64 33,-92 88,-112 32,-13 70,-26 97,-36 198,77 426,-8 522,-201 102,-205 19,-454 -186,-557 -205,-102 -454,-18 -556,187 -38,76 -50,158 -40,236 -70,26 -167,60 -242,91 -35,14 -59,59 -60,98l0 1582c-133,-76 -265,-152 -398,-228 -21,-13 -44,-25 -44,-70l0 -989 -345 146c-36,15 -54,38 -54,70l0 1087 1218 699 0 -2003zm1140 -1487c103,-6 192,72 198,176 6,103 -72,191 -175,198 -103,6 -192,-73 -198,-176 -7,-103 72,-191 175,-198zm-620 163c55,-32 97,-17 141,20 27,22 58,48 80,66 32,210 219,365 436,352 228,-14 402,-211 388,-439 -14,-229 -211,-403 -439,-389 -85,5 -162,36 -225,83 -57,-47 -136,-114 -199,-163 -30,-24 -82,-22 -116,-4l-1370 791c0,-152 -1,-305 -1,-458 1,-25 -1,-51 38,-73l857 -494 -299 -226c-31,-24 -60,-28 -88,-12l-941 543 3 1405 1735 -1002zm1858 244c57,86 33,202 -53,259 -86,57 -202,33 -259,-53 -57,-86 -34,-202 53,-259 86,-57 202,-33 259,53zm-451 -456c55,32 63,76 54,133 -6,34 -13,73 -18,102 -166,132 -206,372 -87,553 126,191 384,243 575,117 191,-127 243,-384 117,-575 -47,-71 -112,-123 -185,-153 13,-73 31,-174 42,-254 5,-38 -22,-82 -55,-102l-1370 -791c132,-77 264,-154 396,-230 22,-12 44,-26 83,-4l856 495 46 -372c5,-38 -6,-65 -33,-82l-941 -543 -1215 705 1735 1001zm718 1731c-46,93 -159,130 -251,84 -93,-46 -130,-158 -84,-251 46,-92 158,-130 251,-84 92,46 130,159 84,251zm169 -618c0,64 -34,92 -88,113 -33,12 -70,25 -97,36 -198,-78 -426,7 -523,201 -102,205 -19,454 186,556 205,102 454,19 556,-186 38,-76 51,-158 41,-237 69,-25 166,-60 241,-90 36,-15 60,-60 61,-99l0 -1582c132,76 265,152 397,228 21,14 45,25 44,70l0 989 345 -146c36,-15 54,-38 55,-70l0 -1087 -1218 -699 0 2003zm-1140 1487c-103,6 -192,-72 -198,-175 -7,-103 72,-192 175,-198 103,-7 192,72 198,175 6,103 -72,192 -175,198zm620 -163c-56,32 -97,17 -142,-19 -27,-23 -57,-49 -80,-67 -31,-210 -219,-365 -435,-352 -229,14 -403,211 -389,440 14,228 211,402 440,388 84,-5 162,-35 225,-83 57,47 135,114 199,164 30,23 81,21 116,3l1369 -791c1,153 1,305 2,458 -2,25 0,51 -39,73l-857 495 299 225c32,24 60,28 88,13l942 -544 -4 -1404 -1734 1001zm-1858 -243c-57,-87 -34,-203 52,-260 86,-57 203,-33 260,53 57,86 33,202 -53,259 -86,57 -202,34 -259,-52zm451 455c-56,-32 -64,-75 -54,-132 6,-35 13,-74 17,-103 167,-132 207,-372 87,-553 -126,-191 -383,-243 -574,-116 -191,126 -244,383 -117,574 47,71 112,123 185,153 -13,74 -31,175 -43,255 -5,38 22,81 55,102l1370 790c-132,77 -264,154 -396,231 -22,11 -43,26 -82,3l-857 -495 -46 372c-5,39 6,66 33,82l942 544 1214 -705 -1734 -1002z"/>
 </g>
</svg>
